<svg width="20" height="26" viewBox="0 0 20 26" fill="none" xmlns="http://www.w3.org/2000/svg">
<path d="M13.6611 3.68474C13.4786 2.80819 13.0561 1.99724 12.4277 1.35001C11.4658 0.359626 10.1409 -0.124543 8.79656 0.027467L8.24876 0.088097L8.1979 0.660455C8.09009 1.86772 8.42794 3.05149 9.13398 3.98929C8.38471 4.01179 7.6341 4.15189 6.90081 4.41139C4.82329 5.14591 3.2077 6.70111 2.22883 8.90874C1.65936 10.1933 1.41228 11.6394 1.51511 13.0902C1.64407 14.9146 1.35447 18.808 0.323634 21.3698C-0.502647 23.4231 0.439808 24.6392 1.07543 25.1814C1.69743 25.7116 2.49592 26 3.33554 26C3.37418 26 3.41364 25.9997 3.45311 25.9986C9.76236 25.7958 13.1267 22.9546 14.8379 20.6068C16.9699 17.6815 17.75 13.8273 16.9249 10.2971C16.6117 8.95707 15.9857 7.73109 15.1227 6.72265C15.6626 6.78611 16.2171 6.74772 16.7613 6.60246L16.7615 6.60261C18.0803 6.25047 19.1732 5.31613 19.7607 4.03883L20 3.51924L19.5581 3.18139C18.4752 2.34949 17.0944 2.07579 15.7759 2.42743C14.9634 2.64425 14.2367 3.08202 13.6611 3.68474Z" fill="url(#paint0_linear_81_223)"/>
<defs>
<linearGradient id="paint0_linear_81_223" x1="20.0397" y1="3.90503" x2="-1.34245" y2="25.4218" gradientUnits="userSpaceOnUse">
<stop stop-color="#77D500"/>
<stop offset="0.479167" stop-color="#FFE600"/>
<stop offset="1" stop-color="#FF6B00"/>
</linearGradient>
</defs>
</svg>
