<svg width="14" height="15" viewBox="0 0 14 15" fill="none" xmlns="http://www.w3.org/2000/svg">
<g clip-path="url(#clip0_166_4)">
<path d="M12.2054 1.86499C11.6533 1.53861 11.0495 1.37499 10.3959 1.37499C9.92703 1.37487 9.4628 1.46766 9.03 1.64799C8.58668 1.83073 8.1851 2.10162 7.84963 2.44424L7 3.30436L6.15125 2.44424C5.81929 2.10561 5.4231 1.83662 4.98588 1.65302C4.54866 1.46942 4.0792 1.3749 3.605 1.37499C2.96784 1.36993 2.34146 1.53939 1.79375 1.86499C1.24852 2.18523 0.796851 2.64292 0.483876 3.19236C0.161001 3.75149 1.26578e-06 4.36224 1.26578e-06 5.02374C-0.000799737 5.9895 0.378593 6.91677 1.05613 7.60499L7 13.625L12.9439 7.60411C13.2837 7.26256 13.5512 6.85606 13.7305 6.40886C13.9099 5.96086 14 5.49886 14 5.02374C14.0047 4.38136 13.8376 3.74939 13.5161 3.19324C13.203 2.64337 12.751 2.18535 12.2054 1.86499Z" fill="#CCCCCC" fill-opacity="0.54"/>
</g>
<defs>
<clipPath id="clip0_166_4">
<rect width="14" height="14" fill="white" transform="translate(0 0.5)"/>
</clipPath>
</defs>
</svg>
